# xmcd CD database file
#
# Track frame offsets:
#	150
#	15855
#	33507
#	45957
#	66960
#	77207
#	99695
#	115657
#	134370
#	147177
#	172855
#	189780
#	206660
#	218507
#
# Disc length: 3218 seconds
#
# Revision: 0
# Processed by: cddbd v1.5PL3 Copyright (c) Steve Scherf et al.
# Submitted via: CDex 1.50beta9
#
DISCID=b00c900e
DTITLE=Crunched grind - ｓwitch 
DYEAR=1998
DGENRE=New Age
TTITLE0=Traffic light
TTITLE1=Some place for breath
TTITLE2=Time to get up
TTITLE3=Smoke
TTITLE4=Ride again
TTITLE5=Over
TTITLE6=Tomorrow will be like today
TTITLE7=The giving tree
TTITLE8=Direction
TTITLE9=Climb up the sky
TTITLE10=When i grow up
TTITLE11=Own time(album version)
TTITLE12=After grow
TTITLE13=Face the facts(CMJK remix)
EXTD=YEAR: 1998
EXTT0=
EXTT1=
EXTT2=
EXTT3=
EXTT4=
EXTT5=
EXTT6=
EXTT7=
EXTT8=
EXTT9=
EXTT10=
EXTT11=
EXTT12=
EXTT13=
PLAYORDER=
